# Blender v2.81 (sub 16) OBJ File: ''
# www.blender.org
o Plane_Plane.007
v -100.000000 0.000000 100.000000
v 100.000000 0.000000 100.000000
v -100.000000 0.000000 -100.000000
v 100.000000 0.000000 -100.000000
v -33.333328 0.000000 100.000000
v 33.333336 0.000000 100.000000
v 33.333328 0.000000 -100.000000
v -33.333336 0.000000 -100.000000
v -100.000000 0.000000 -33.333328
v -100.000000 0.000000 33.333336
v 100.000000 0.000000 33.333332
v 100.000000 0.000000 -33.333332
v -33.333332 0.000000 33.333332
v -33.333336 0.000000 -33.333332
v 33.333332 0.000000 33.333332
v 33.333328 0.000000 -33.333332
vt 0.000000 0.000000
vt 1.000000 1.000000
vt 0.000000 1.000000
vt 0.000000 0.000000
vt 1.000000 1.000000
vt 0.000000 1.000000
vt 1.000000 0.000000
vt 0.000000 1.000000
vt 1.000000 0.000000
vt 0.000000 1.000000
vt 0.000000 0.000000
vt 1.000000 0.000000
vt 0.000000 1.000000
vt 0.000000 0.000000
vt 1.000000 1.000000
vt 0.000000 1.000000
vt 1.000000 1.000000
vt 0.000000 1.000000
vt 0.000000 0.000000
vt 1.000000 1.000000
vt 0.000000 1.000000
vt 0.000000 0.000000
vt 1.000000 1.000000
vt 0.000000 1.000000
vt 1.000000 0.000000
vt 1.000000 0.000000
vt 1.000000 0.000000
vt 1.000000 0.000000
vt 1.000000 0.000000
vt 1.000000 0.000000
vn 0.0000 1.0000 0.0000
s off
f 12/1/1 7/2/1 16/3/1
f 14/4/1 3/5/1 9/6/1
f 16/7/1 8/8/1 14/4/1
f 6/9/1 13/10/1 5/11/1
f 15/12/1 14/13/1 13/14/1
f 5/11/1 10/15/1 1/16/1
f 13/14/1 9/17/1 10/18/1
f 2/19/1 15/20/1 6/21/1
f 11/22/1 16/23/1 15/24/1
f 12/1/1 4/25/1 7/2/1
f 14/4/1 8/26/1 3/5/1
f 16/7/1 7/2/1 8/8/1
f 6/9/1 15/20/1 13/10/1
f 15/12/1 16/23/1 14/13/1
f 5/11/1 13/27/1 10/15/1
f 13/14/1 14/28/1 9/17/1
f 2/19/1 11/29/1 15/20/1
f 11/22/1 12/30/1 16/23/1
